<?xml version="1.0" standalone="no"?><!DOCTYPE svg PUBLIC "-//W3C//DTD SVG 1.1//EN" "http://www.w3.org/Graphics/SVG/1.1/DTD/svg11.dtd"><svg t="1550466476521" class="icon" style="" viewBox="0 0 1024 1024" version="1.1" xmlns="http://www.w3.org/2000/svg" p-id="3268" xmlns:xlink="http://www.w3.org/1999/xlink" width="200" height="200"><defs><style type="text/css"></style></defs><path d="M291.207 451.145c38.707 15.65 76.323 37.412 112.803 65.328l30.12-45.771c-33.119-22.692-71.644-42.613-115.529-59.741l-27.394 40.184zM488.283 392.54c-35.708-21.943-75.551-41.114-119.481-57.492l-27.349 40.75c39.842 14.878 78.73 35.731 116.71 62.535l30.12-45.793z" p-id="3269"></path><path d="M632.887 383.612l54.152 15.628c12.63-31.642 23.215-64.192 31.802-97.697v-36.276H285.073v53.585h373.481c-6.314 23.078-14.9 44.658-25.667 64.76z" p-id="3270"></path><path d="M568.104 461.775v-117.8h-57.469v117.8c-1.863 26.032-5.997 49.497-12.312 70.326H265.538v56.947h207.116c-4.861 7.45-10.222 15.06-16.173 22.874-32.755 36.117-95.676 65.874-188.717 89.315l32.937 51.382c91.179-23.442 157.461-57.129 198.757-101.037 0-0.363 0.363-0.954 1.09-1.681 72.233 32.006 141.061 68.1 206.571 108.306l40.751-44.658c-68.101-39.093-140.516-74.642-217.157-106.624l8.95-17.877H757.91v-56.947H558.609c5.224-22.692 8.404-46.134 9.495-70.326z" p-id="3271"></path><path d="M907.149 0H116.301C52.062 0-0.001 52.063-0.001 116.301V907.15c0 64.215 52.063 116.301 116.301 116.301h790.848c64.238 0 116.302-52.086 116.302-116.301V116.301C1023.45 52.063 971.387 0 907.149 0z m46.52 883.89c0 38.524-31.256 69.78-69.78 69.78H139.561c-38.57 0-69.781-31.256-69.781-69.78V139.562c0-38.547 31.21-69.781 69.781-69.781h744.328c38.524 0 69.78 31.233 69.78 69.781V883.89z" p-id="3272"></path></svg>