<?xml version="1.0" standalone="no"?><!DOCTYPE svg PUBLIC "-//W3C//DTD SVG 1.1//EN" "http://www.w3.org/Graphics/SVG/1.1/DTD/svg11.dtd"><svg t="1550466417190" class="icon" style="" viewBox="0 0 1024 1024" version="1.1" xmlns="http://www.w3.org/2000/svg" p-id="887" xmlns:xlink="http://www.w3.org/1999/xlink" width="200" height="200"><defs><style type="text/css"></style></defs><path d="M595.2 790.2c-3.4 0-6.8-1.2-9.5-3.4L512 725.3l-73.8 61.5c-4.4 3.7-10.5 4.5-15.7 2-5.2-2.4-8.5-7.6-8.5-13.4V472.2c0-8.2 6.6-14.8 14.8-14.8s14.8 6.6 14.8 14.8v271.6l59-49.2c5.5-4.6 13.4-4.6 18.9 0l59 49.2V472.2c0-8.2 6.6-14.8 14.8-14.8s14.8 6.6 14.8 14.8v303.2c0 5.7-3.3 11-8.5 13.4-2.1 0.9-4.2 1.4-6.4 1.4z" p-id="888"></path><path d="M828 959.2H196c-29.9 0-54.2-24.3-54.2-54.2V460.9c0-8.2 6.6-14.8 14.8-14.8h710.8c8.2 0 14.8 6.6 14.8 14.8V905c0 29.9-24.3 54.2-54.2 54.2zM171.4 475.7V905c0 13.6 11 24.6 24.6 24.6h632c13.6 0 24.6-11 24.6-24.6V475.7H171.4zM867.4 303c-8.2 0-14.8-6.6-14.8-14.8V126.6c0-13-7-24-18.7-29.6-11.7-5.6-24.7-4-34.8 4.2L597.4 266c-6.3 5.2-15.6 4.2-20.8-2.1-5.2-6.3-4.2-15.6 2.1-20.8L780.5 78.3c18.8-15.4 44.2-18.4 66.1-8 22 10.4 35.6 32 35.6 56.3v161.7c0 8.1-6.6 14.7-14.8 14.7zM156.6 303c-8.2 0-14.8-6.6-14.8-14.8V126.6c0-24.3 13.6-45.9 35.6-56.3 22-10.4 47.3-7.3 66.1 8l194.6 159c6.3 5.2 7.3 14.5 2.1 20.8-5.2 6.3-14.5 7.3-20.8 2.1l-194.6-159c-10-8.2-23-9.8-34.8-4.2-11.7 5.6-18.7 16.6-18.7 29.6v161.7c0.1 8.1-6.6 14.7-14.7 14.7z" p-id="889"></path><path d="M595.2 303c-8.2 0-14.8-6.6-14.8-14.8 0-37.8-30.7-68.5-68.5-68.5s-68.5 30.7-68.5 68.5c0 8.2-6.6 14.8-14.8 14.8s-14.8-6.6-14.8-14.8c0-54 44-98 98-98s98 44 98 98c0.2 8.2-6.4 14.8-14.6 14.8z" p-id="890"></path><path d="M877.5 475.7h-731c-42.4 0-76.9-34.5-76.9-76.9V367c0-42.4 34.5-76.9 76.9-76.9h730.9c42.4 0 76.9 34.5 76.9 76.9v31.7c0.1 42.5-34.4 77-76.8 77z m-731-156.1c-26.1 0-47.4 21.3-47.4 47.4v31.7c0 26.1 21.3 47.4 47.4 47.4h730.9c26.1 0 47.4-21.3 47.4-47.4V367c0-26.1-21.3-47.4-47.4-47.4H146.5z" p-id="891"></path></svg>