<?xml version="1.0" standalone="no"?><!DOCTYPE svg PUBLIC "-//W3C//DTD SVG 1.1//EN" "http://www.w3.org/Graphics/SVG/1.1/DTD/svg11.dtd"><svg t="1550466452708" class="icon" style="" viewBox="0 0 1024 1024" version="1.1" xmlns="http://www.w3.org/2000/svg" p-id="1276" xmlns:xlink="http://www.w3.org/1999/xlink" width="200" height="200"><defs><style type="text/css"></style></defs><path d="M330.175 497.58c39.805 13.011 77.747 29.405 113.828 49.114l-24.523 37.375h92.052c4.837-15.985 7.993-31.426 9.491-46.321v-90.962h56.357v90.962c-1.112 16.395-3.338 31.835-6.676 46.321h176.339v55.268H548.93l-5.586 8.901c69.188 20.118 133.174 43.914 191.983 71.435l-32.924 50.771c-62.511-34.219-126.884-61.739-193.096-82.561-40.191 34.582-106.04 61.376-197.547 80.336l-31.244-49.659c92.257-18.233 154.586-40.736 186.943-67.507l11.716-11.717H276.043v-55.268h127.225c-32.357-18.982-65.849-34.219-100.431-45.754l27.338-40.734z m-47.979-117.189h200.885v-37.375H323.477v-52.452h159.604v-37.965h56.925v37.965H696.25v52.452H540.006v37.375h195.321v36.285c-8.22 37.92-19.368 75.34-33.515 112.17L647.135 513.2c10.808-21.571 20.458-48.16 29.019-79.791H282.196v-53.018z m94.868 59.151c40.167 10.786 78.655 24.932 115.485 42.416l-28.997 44.073c-37.579-20.072-75.544-35.513-113.828-46.321l27.34-40.168z" p-id="1277"></path><path d="M906.807 0.012h-790.55C52.043 0.012 0 52.055 0 116.269v790.549c0 64.169 52.043 116.258 116.257 116.258h790.549c64.215 0 116.258-52.089 116.258-116.258V116.269c0-64.214-52.043-116.257-116.257-116.257z m46.504 883.555c0 38.51-31.244 69.755-69.755 69.755H139.509c-38.556 0-69.754-31.245-69.754-69.755V139.521c0-38.556 31.199-69.754 69.754-69.754h744.047c38.511 0 69.755 31.199 69.755 69.754v744.046z" p-id="1278"></path></svg>